<svg id="Layer_1" data-name="Layer 1" xmlns="http://www.w3.org/2000/svg" viewBox="0 0 185.4 74.03"><defs><style>.cls-1{fill:#ee6055;}.cls-2{fill:#17c5c2;}</style></defs><path class="cls-1" d="M39.11,59c2.25.12,4.33.24,4.33,3.56v3c0,3.56-2.37,3.56-4.75,3.56H11.58c-1.48,0-1.83.29-1.83,1.54,0,.42.05,1,.05,1.72C9.8,73.81,9.57,75,8.14,75h-5c-1.19,0-1.78-1.31-1.78-2.79V55.84c0-1.48.59-2.79,1.78-2.79h5c1.43,0,1.66,1.19,1.66,2.67,0,.42-.05,1-.05,1.66,0,1.48.35,1.6,1.83,1.6Z" transform="translate(-1.32 -0.97)"/><path class="cls-1" d="M13.48,41.37c3.26,0,3.26,0,3.26-3.27s0-3.26-3.08-3.26H6.07c-2.38,0-4.75,0-4.75-3.56v-3c0-3.55,2.37-3.55,4.75-3.55H38.69c2.38,0,4.75,0,4.75,3.55v3c0,3.56-2.37,3.56-4.75,3.56H29.8c-3.92,0-4.16.24-4.16,3.26v.66c0,1.89,0,2.61,3,2.61h10c2.38,0,4.75,0,4.75,3.56v3c0,3.56-2.37,3.56-4.75,3.56H6.07c-2.38,0-4.75,0-4.75-3.56v-3c0-3.56,2.37-3.56,4.75-3.56Z" transform="translate(-1.32 -0.97)"/><path class="cls-1" d="M32.58,12.54a2.3,2.3,0,0,0,2-2.49c0-3.39-.12-4.51-.12-5.76,0-2.49.72-3.26,2.5-3.26h4.15c1.78,0,2.37.59,2.37,2.37V19.06c0,3.56-3.56,3.56-4.75,3.56H6.07c-2.38,0-4.75,0-4.75-3.56V3.76C1.32,2.27,1.91,1,3.1,1h5C9.57,1,9.63,2.16,9.63,3.64c0,2.31-.12,4.15-.12,5.63,0,3.27,1.18,3.27,3.08,3.27,3.86,0,4.87,0,4.87-3,0-3.68-.12-4.27-.12-5.63,0-2.08,2.07-2.2,2.73-2.2h3.79c1.78,0,1.9,1.25,1.9,2.73,0,3-.12,4.92-.12,6.17,0,1.9.83,1.9,2.79,1.9Z" transform="translate(-1.32 -0.97)"/><path class="cls-2" d="M59.57,1c4,0,6.68.72,6.68,2.06v3.7c0,.53-.2,1.44-1.83,1.44H64c-.77,0-2.5-.53-3.89-.53-1.15,0-2.06.38-2.06,1.92s.43,2.26,2.3,3.79c5.71,4.71,6.86,8.07,6.86,12,0,2.2,0,4.22-1.29,6.09a9.1,9.1,0,0,1-5.14,3.6,20,20,0,0,1-4.61.53c-3.55,0-7-.67-7-2.59V29.3c0-.57.48-1.15,1.78-1.15s2.31.72,5,.72c1.35,0,3.17-1.06,3.17-2.54,0-1.11,0-1.92-3-4.8-4.46-4.37-6.57-6.39-6.57-10.32C49.64,1.75,55.73,1,59.57,1Z" transform="translate(-1.32 -0.97)"/><path class="cls-2" d="M76.76,26.57a1.85,1.85,0,0,0,2,1.58c2.74,0,3.65-.1,4.66-.1,2,0,2.64.58,2.64,2v3.36c0,1.44-.48,1.92-1.92,1.92H71.48c-2.88,0-2.88-2.88-2.88-3.84V5.11c0-1.92,0-3.84,2.88-3.84H83.86c1.2,0,2.26.48,2.26,1.44V6.79c0,1.15-1,1.2-2.16,1.2-1.87,0-3.36-.1-4.56-.1-2.64,0-2.64,1-2.64,2.5,0,3.12,0,3.94,2.4,3.94,3,0,3.45-.1,4.56-.1,1.68,0,1.77,1.68,1.77,2.21v3.07c0,1.44-1,1.54-2.2,1.54-2.45,0-4-.1-5-.1-1.53,0-1.53.67-1.53,2.26Z" transform="translate(-1.32 -0.97)"/><path class="cls-2" d="M102.1,28.39c2,0,2.26,1.06,2.26,2.5v.62c0,1.92,0,3.84-2.88,3.84H90.63c-2.88,0-2.88-1.92-2.88-3.84V5.11c0-1.92,0-3.84,2.88-3.84H93c2.88,0,2.88,1.92,2.88,3.84V25.8c0,1.15,0,2.64,1.49,2.69C99.94,28.49,101.09,28.39,102.1,28.39Z" transform="translate(-1.32 -0.97)"/><path class="cls-2" d="M113.62,11.59c0,2.3,0,3.07,2.11,3.07s2.5-.09,3.31-.09c2.74,0,2.84.43,2.84,2.59v.43c0,3.46,0,3.94-3.27,3.94-1,0-2.64-.1-3.36-.1-1.58,0-1.63.34-1.63,2.78v7.3c0,1.92,0,3.84-2.88,3.84h-2.4c-2.88,0-2.88-1.92-2.88-3.84V5.11c0-1.44,0-3.84,2.88-3.84h11.9c1.2,0,2.26.48,2.26,1.44V6.79c0,1-.38,1.2-2.11,1.2-1.2,0-1.54-.1-3.79-.1C113.62,7.89,113.62,8.76,113.62,11.59Z" transform="translate(-1.32 -0.97)"/><path class="cls-2" d="M131.81,31.51c0,1.92,0,3.84-2.88,3.84h-2.4c-2.88,0-2.88-1.92-2.88-3.84V5.11c0-1.92,0-3.84,2.88-3.84h2.4c2.88,0,2.88,1.92,2.88,3.84Z" transform="translate(-1.32 -0.97)"/><path class="cls-2" d="M141.7,26.57a1.87,1.87,0,0,0,2,1.58c2.73,0,3.64-.1,4.65-.1,2,0,2.64.58,2.64,2v3.36c0,1.44-.48,1.92-1.92,1.92H136.42c-2.88,0-2.88-2.88-2.88-3.84V5.11c0-1.92,0-3.84,2.88-3.84H148.8c1.2,0,2.26.48,2.26,1.44V6.79c0,1.15-1,1.2-2.16,1.2-1.87,0-3.36-.1-4.56-.1-2.64,0-2.64,1-2.64,2.5,0,3.12,0,3.94,2.4,3.94,3,0,3.46-.1,4.56-.1,1.68,0,1.78,1.68,1.78,2.21v3.07c0,1.44-1,1.54-2.21,1.54-2.45,0-4-.1-5-.1-1.54,0-1.54.67-1.54,2.26Z" transform="translate(-1.32 -0.97)"/><path class="cls-2" d="M57.75,63.46v7.05c0,1.92,0,3.84-2.88,3.84h-2.4c-2.88,0-2.88-1.92-2.88-3.84V44.11c0-1.92,0-3.84,2.88-3.84H62.89c5.18,0,8.11,4.22,8.11,10.94A22.38,22.38,0,0,1,69.51,59c-1.54,3.26-6.1,3.74-8.78,3.74A13,13,0,0,1,59,62.64C57.8,62.64,57.75,63,57.75,63.46Zm0-14.36c0,.63,0,1.44,0,2.45s0,1.82,0,2.4c0,1.58.29,1.87,2.21,1.87,2.54,0,2.64-2.11,2.64-4.27s-.48-4.8-2.64-4.8C58,46.75,57.7,47.37,57.7,49.1Z" transform="translate(-1.32 -0.97)"/><path class="cls-2" d="M84.39,40.27c7.15,0,9.17,5.14,9.17,10.8,0,3.46,0,5.66-2.79,8-1.34,1.15-2.2.48-2.2,2.3s.62,4.37,2.2,4.37a6.36,6.36,0,0,0,1.54-.24c1.54,0,1.78,1.3,1.78,3.5,0,1.06,0,2.36,0,3.8,0,1-.39,1.82-2.88,1.82-4.42,0-6.67-3.26-7.59-6.81-1.15-4.47-2.59-5.24-2.88-5.24s-.38.77-.38,1.15v6.82c0,1.92,0,3.84-2.88,3.84H74.07c-1.92,0-1.92-1.92-1.92-3.84V44.11c0-1.92,0-3.84,2.88-3.84Zm-4.13,8.54c0,.63,0,1.73,0,2.74s0,1.82,0,2.4c0,1.58.29,1.87,2.21,1.87,2.16,0,2.64-2.11,2.64-4.27s-.48-4.8-2.64-4.8C80.55,46.75,80.26,47.08,80.26,48.81Z" transform="translate(-1.32 -0.97)"/><path class="cls-2" d="M95.24,53.42C95.24,45.69,96,40,106.08,40c9.65,0,10.33,5.57,10.33,13.2,0,2.88.14,5.71.14,8.26,0,7.58-1.2,13.1-10.47,13.1-10.12,0-10.84-5.66-10.84-13.34,0-1.3,0-2.6,0-3.94S95.24,54.67,95.24,53.42Zm8.2-4V64.51c0,1.44,0,3.36,2.4,3.36s2.4-1.92,2.4-3.36V49.39c0-1.2,0-2.64-2.4-2.64S103.44,48.19,103.44,49.39Z" transform="translate(-1.32 -0.97)"/><path class="cls-2" d="M117.6,71.9V68.78c0-1,.58-1.39,1.49-1.39.58,0,1.11,0,1.54,0,1.77,0,2-.77,2-2.69,0-.72,0-1.68,0-2.93V44.11c0-1.92,0-3.84,2.88-3.84h2.4c2.88,0,2.88,1.92,2.88,3.84V66.86c0,6.1-3,7.73-7.73,7.73C119.38,74.59,117.6,74.35,117.6,71.9Z" transform="translate(-1.32 -0.97)"/><path class="cls-2" d="M140.64,65.57a1.87,1.87,0,0,0,2,1.58c2.74,0,3.65-.1,4.66-.1,2,0,2.64.58,2.64,2v3.36c0,1.44-.48,1.92-1.92,1.92H135.36c-2.88,0-2.88-2.88-2.88-3.84V44.11c0-1.92,0-3.84,2.88-3.84h12.39c1.2,0,2.25.48,2.25,1.44v4.08c0,1.15-1,1.2-2.16,1.2-1.87,0-3.36-.1-4.56-.1-2.64,0-2.64,1-2.64,2.5,0,3.12,0,3.94,2.4,3.94,3,0,3.46-.1,4.56-.1,1.68,0,1.78,1.68,1.78,2.21v3.07c0,1.44-1,1.54-2.21,1.54-2.45,0-4-.1-5-.1-1.54,0-1.54.67-1.54,2.26Z" transform="translate(-1.32 -0.97)"/><path class="cls-2" d="M166,40c1.2,0,1.82.57,1.82,1.53v4.23c0,.48,0,1.2-1.82,1.2-1,0-1-.1-1.54-.1-4.56,0-4.56,8.31-4.56,10s.05,10.56,4.37,10.56c.62,0,.62-.1,1.73-.1,1.82,0,1.82,1.73,1.82,2.21v3.22A1.58,1.58,0,0,1,166,74.59c-6.82,0-14.74-3.12-14.74-17.76C151.25,43.15,159.17,40,166,40Z" transform="translate(-1.32 -0.97)"/><path class="cls-2" d="M181.92,70.85c-.09,1.82-.19,3.5-2.88,3.5h-2.4c-2.88,0-2.88-1.92-2.88-3.84V48.57c0-1.2-.24-1.49-1.25-1.49-.33,0-.81.05-1.39.05-1.2,0-2.16-.19-2.16-1.34V41.71c0-1,1.06-1.44,2.26-1.44h13.25c1.2,0,2.25.48,2.25,1.44v4.08c0,1.15-1,1.34-2.16,1.34-.33,0-.77-.05-1.34-.05-1.2,0-1.3.29-1.3,1.49Z" transform="translate(-1.32 -0.97)"/></svg>